<svg width="705" height="627" viewBox="0 0 705 627" fill="none" xmlns="http://www.w3.org/2000/svg">
<path d="M204.911 431.848V481.212L160.74 523.131" stroke="#5B9DFC" stroke-width="10" stroke-miterlimit="10" stroke-linecap="round" stroke-linejoin="round"/>
<path d="M404.656 384.308V471.254L350.332 523.131" stroke="#5B9DFC" stroke-width="10" stroke-miterlimit="10" stroke-linecap="round" stroke-linejoin="round"/>
<path d="M334.118 562.086C321.491 562.086 311.261 551.855 311.261 539.232C311.261 526.609 321.491 516.378 334.118 516.378C346.738 516.378 356.972 526.609 356.972 539.232C356.972 551.855 346.738 562.086 334.118 562.086Z" stroke="#5B9DFC" stroke-width="10" stroke-miterlimit="10" stroke-linecap="round" stroke-linejoin="round"/>
<path d="M143.399 562.086C156.022 562.086 166.252 551.855 166.252 539.232C166.252 526.609 156.022 516.378 143.399 516.378C130.775 516.378 120.545 526.609 120.545 539.232C120.545 551.855 130.775 562.086 143.399 562.086Z" stroke="#5B9DFC" stroke-width="10" stroke-miterlimit="10" stroke-linecap="round" stroke-linejoin="round"/>
<path d="M257.854 459.712C245.231 459.712 235 449.477 235 436.858C235 424.235 245.231 414 257.854 414C270.477 414 280.708 424.235 280.708 436.858C280.708 449.477 270.477 459.712 257.854 459.712Z" stroke="#5B9DFC" stroke-width="10" stroke-miterlimit="10" stroke-linecap="round" stroke-linejoin="round"/>
<path d="M471.242 431.848V489.98L504.595 523.19" stroke="#5B9DFC" stroke-width="10" stroke-miterlimit="10" stroke-linecap="round" stroke-linejoin="round"/>
<path d="M520.871 562.086C508.248 562.086 498.013 551.855 498.013 539.232C498.013 526.609 508.248 516.378 520.871 516.378C533.49 516.378 543.725 526.609 543.725 539.232C543.725 551.855 533.49 562.086 520.871 562.086Z" stroke="#5B9DFC" stroke-width="10" stroke-miterlimit="10" stroke-linecap="round" stroke-linejoin="round"/>
<path d="M245.442 622C258.061 622 268.295 611.765 268.295 599.142C268.295 586.519 258.061 576.288 245.442 576.288C232.815 576.288 222.584 586.519 222.584 599.142C222.584 611.765 232.815 622 245.442 622Z" stroke="#5B9DFC" stroke-width="10" stroke-miterlimit="10" stroke-linecap="round" stroke-linejoin="round"/>
<path d="M245.442 576.288V519.222L204.911 481.212" stroke="#5B9DFC" stroke-width="10" stroke-miterlimit="10" stroke-linecap="round" stroke-linejoin="round"/>
<path d="M422.788 622C410.169 622 399.934 611.765 399.934 599.142C399.934 586.519 410.169 576.288 422.788 576.288C435.415 576.288 445.646 586.519 445.646 599.142C445.646 611.765 435.415 622 422.788 622Z" stroke="#5B9DFC" stroke-width="10" stroke-miterlimit="10" stroke-linecap="round" stroke-linejoin="round"/>
<path d="M422.788 576.288V532.366L471.242 489.389" stroke="#5B9DFC" stroke-width="10" stroke-miterlimit="10" stroke-linecap="round" stroke-linejoin="round"/>
<path d="M338.075 314.5V455.309L379.885 494.905" stroke="url(#paint0_linear_2_42)" stroke-width="10" stroke-miterlimit="10" stroke-linecap="round" stroke-linejoin="round"/>
<path d="M258 305V413" stroke="url(#paint1_linear_2_42)" stroke-width="10" stroke-miterlimit="10" stroke-linecap="round" stroke-linejoin="round"/>
<path d="M502.688 139.1C520.355 130.695 540.115 126 560.982 126C636.101 126 697 186.891 697 262C697 337.114 636.101 398 560.982 398H453" stroke="url(#paint2_linear_2_42)" stroke-width="15" stroke-miterlimit="10" stroke-linecap="round" stroke-linejoin="round"/>
<path d="M266 156.708C252.619 140.939 235.958 128.047 217.077 119.081C198.073 110.052 176.82 105 154.383 105C73.5363 105 8 170.591 8 251.502C8 332.414 73.5363 398 154.383 398H206.042" stroke="url(#paint3_linear_2_42)" stroke-width="15" stroke-miterlimit="10" stroke-linecap="round" stroke-linejoin="round"/>
<path d="M200 112.513C228.824 50.7734 291.544 7.99997 364.336 7.99997C443.021 7.99997 510.004 58.0701 535 128" stroke="#375F98" stroke-width="15" stroke-miterlimit="10" stroke-linecap="round" stroke-linejoin="round"/>
<path d="M166.938 318H154.688L104.875 241.25H104.375C104.5 243.292 104.646 245.625 104.812 248.25C104.979 250.833 105.104 253.604 105.188 256.562C105.312 259.479 105.375 262.458 105.375 265.5V318H95.5V226.625H107.688L157.312 303.125H157.75C157.667 301.667 157.562 299.604 157.438 296.938C157.312 294.229 157.188 291.333 157.062 288.25C156.979 285.125 156.938 282.229 156.938 279.562V226.625H166.938V318ZM204.675 318V226.625H215.3V318H204.675ZM293.413 318L262.725 237.125H262.225C262.392 238.833 262.538 240.917 262.663 243.375C262.788 245.833 262.892 248.521 262.975 251.438C263.058 254.312 263.1 257.25 263.1 260.25V318H253.225V226.625H268.975L297.913 302.625H298.35L327.725 226.625H343.35V318H332.85V259.5C332.85 256.792 332.892 254.083 332.975 251.375C333.058 248.625 333.163 246.042 333.288 243.625C333.413 241.167 333.538 239.042 333.663 237.25H333.163L302.1 318H293.413ZM381.15 226.625H407.025C418.442 226.625 427.025 228.333 432.775 231.75C438.525 235.167 441.4 240.979 441.4 249.188C441.4 252.729 440.712 255.917 439.337 258.75C438.004 261.542 436.046 263.854 433.462 265.688C430.879 267.521 427.692 268.792 423.9 269.5V270.125C427.9 270.75 431.442 271.896 434.525 273.562C437.608 275.229 440.025 277.562 441.775 280.562C443.525 283.562 444.4 287.375 444.4 292C444.4 297.625 443.087 302.375 440.462 306.25C437.879 310.125 434.212 313.062 429.462 315.062C424.712 317.021 419.087 318 412.587 318H381.15V226.625ZM391.775 265.812H409.275C417.233 265.812 422.733 264.5 425.775 261.875C428.858 259.25 430.4 255.417 430.4 250.375C430.4 245.167 428.567 241.417 424.9 239.125C421.275 236.833 415.483 235.688 407.525 235.688H391.775V265.812ZM391.775 274.75V308.938H410.775C418.9 308.938 424.65 307.354 428.025 304.188C431.4 300.979 433.087 296.667 433.087 291.25C433.087 287.792 432.317 284.833 430.775 282.375C429.275 279.917 426.817 278.042 423.4 276.75C420.025 275.417 415.504 274.75 409.837 274.75H391.775ZM545.825 226.625V285.75C545.825 292.208 544.513 297.958 541.888 303C539.304 308.042 535.388 312.021 530.138 314.938C524.888 317.812 518.304 319.25 510.388 319.25C499.096 319.25 490.492 316.188 484.575 310.062C478.7 303.938 475.763 295.75 475.763 285.5V226.625H486.45V285.812C486.45 293.562 488.492 299.542 492.575 303.75C496.7 307.958 502.846 310.062 511.013 310.062C516.596 310.062 521.158 309.062 524.7 307.062C528.283 305.021 530.929 302.188 532.638 298.562C534.388 294.896 535.263 290.667 535.263 285.875V226.625H545.825ZM634.438 293.688C634.438 299.104 633.083 303.729 630.375 307.562C627.708 311.354 623.958 314.25 619.125 316.25C614.292 318.25 608.604 319.25 602.062 319.25C598.604 319.25 595.333 319.083 592.25 318.75C589.167 318.417 586.333 317.938 583.75 317.312C581.167 316.688 578.896 315.917 576.938 315V304.812C580.062 306.104 583.875 307.312 588.375 308.438C592.875 309.521 597.583 310.062 602.5 310.062C607.083 310.062 610.958 309.458 614.125 308.25C617.292 307 619.688 305.229 621.312 302.938C622.979 300.604 623.812 297.812 623.812 294.562C623.812 291.438 623.125 288.833 621.75 286.75C620.375 284.625 618.083 282.708 614.875 281C611.708 279.25 607.375 277.396 601.875 275.438C598 274.062 594.583 272.562 591.625 270.938C588.667 269.271 586.188 267.396 584.188 265.312C582.188 263.229 580.667 260.812 579.625 258.062C578.625 255.312 578.125 252.167 578.125 248.625C578.125 243.75 579.354 239.583 581.812 236.125C584.312 232.625 587.75 229.958 592.125 228.125C596.542 226.25 601.604 225.312 607.312 225.312C612.188 225.312 616.688 225.771 620.812 226.688C624.979 227.604 628.792 228.833 632.25 230.375L628.938 239.5C625.646 238.125 622.146 236.979 618.438 236.062C614.771 235.146 610.979 234.688 607.062 234.688C603.146 234.688 599.833 235.271 597.125 236.438C594.458 237.562 592.417 239.167 591 241.25C589.583 243.333 588.875 245.812 588.875 248.688C588.875 251.896 589.542 254.562 590.875 256.688C592.25 258.812 594.417 260.708 597.375 262.375C600.375 264 604.333 265.708 609.25 267.5C614.625 269.458 619.188 271.542 622.938 273.75C626.688 275.917 629.542 278.583 631.5 281.75C633.458 284.875 634.438 288.854 634.438 293.688Z" fill="url(#paint4_linear_2_42)"/>
<defs>
<linearGradient id="paint0_linear_2_42" x1="358.98" y1="494.905" x2="358.98" y2="314.5" gradientUnits="userSpaceOnUse">
<stop stop-color="#5B9DFC"/>
<stop offset="1" stop-color="#4278C7"/>
</linearGradient>
<linearGradient id="paint1_linear_2_42" x1="257.5" y1="413" x2="257.5" y2="305" gradientUnits="userSpaceOnUse">
<stop stop-color="#5B9DFC"/>
<stop offset="1" stop-color="#4178C7"/>
</linearGradient>
<linearGradient id="paint2_linear_2_42" x1="575" y1="398" x2="575" y2="126" gradientUnits="userSpaceOnUse">
<stop stop-color="#5A9CFB"/>
<stop offset="1" stop-color="#365D95"/>
</linearGradient>
<linearGradient id="paint3_linear_2_42" x1="137" y1="398" x2="137" y2="105" gradientUnits="userSpaceOnUse">
<stop stop-color="#5A9CFB"/>
<stop offset="1" stop-color="#365D95"/>
</linearGradient>
<linearGradient id="paint4_linear_2_42" x1="370.5" y1="417.5" x2="362" y2="181" gradientUnits="userSpaceOnUse">
<stop stop-color="#5B9DFB"/>
<stop offset="1" stop-color="#204883"/>
</linearGradient>
</defs>
</svg>
